<?xml version="1.0" encoding="UTF-8" standalone="no"?>
<!-- Uploaded to: SVG Repo, www.svgrepo.com, Generator: SVG Repo Mixer Tools -->

<svg
   fill="#000000"
   height="800"
   width="800"
   version="1.1"
   id="Layer_1"
   viewBox="0 0 512 512"
   xml:space="preserve"
   xmlns="http://www.w3.org/2000/svg"
   xmlns:svg="http://www.w3.org/2000/svg"><defs
   id="defs2" />
<g
   id="g2"
   style="display:inline">
	
<path
   style="display:none;fill:#000000;stroke-width:0.64"
   d="M 23.252785,203.57155 250.95459,470.75921 c 0,0 35.53727,11.84576 -17.98801,-46.9443 C 179.44131,365.02485 15.355613,166.71808 15.355613,166.71808 c 0,0 -22.8140533,-4.82605 -12.2844904,11.40703 10.5295624,16.23307 20.1816624,25.44644 20.1816624,25.44644 z"
   id="path2" /><path
   style="display:none;fill:#000000;stroke-width:0.64"
   d="m 485.23736,180.31876 -237.3539,281.22708 c 0,0 2.63239,19.3042 17.11054,5.26478 14.47815,-14.03941 246.56727,-291.3179 246.56727,-291.3179 0,0 4.82605,-22.37532 -26.32391,4.82604 z"
   id="path3" /><path
   style="display:none;fill:#000000;stroke-width:0.64"
   d="m 245.6898,180.31876 262.36161,-0.43873 c 0,0 16.67181,-17.988 -19.74292,-16.23307 -36.41474,1.75493 -462.862046,-0.43874 -462.862046,-0.43874 l -21.4978579,0.43874 c 0,0 -15.3556131,20.18166 23.6915169,17.54927 39.047129,-2.63239 218.049697,-0.87747 218.049697,-0.87747 z"
   id="path4" /><path
   style="display:none;fill:#000000;stroke-width:0.64"
   d="m 161.01457,228.14053 89.06255,242.17995 c 0,0 25.00771,11.40703 6.58098,-30.27249 C 238.23136,398.36847 111.43788,39.924593 111.43788,39.924593 c 0,0 -21.497861,-4.387318 -8.33591,24.568981 13.16195,28.956295 57.9126,163.646956 57.9126,163.646956 z"
   id="path5" /><path
   style="display:none;fill:#000000;stroke-width:0.64"
   d="m 279.47215,423.37618 -18.86547,48.2605 c 0,0 -19.74293,10.96829 -3.94858,-31.58869 C 272.45244,397.491 400.56212,39.485861 400.56212,39.485861 c 0,0 21.05913,-5.264781 8.77464,26.323905 C 397.05227,97.398458 279.47215,423.37618 279.47215,423.37618 Z"
   id="path6" /><path
   style="display:inline;fill:#000000;stroke-width:0.64"
   d="m 153.1174,155.31105 85.11396,-98.714649 15.79435,-17.11054 c 0,0 22.81405,-2.63239 2.19366,21.497858 -20.6204,24.130246 -110.12169,119.335041 -110.12169,119.335041 0,0 -24.56898,-3.07112 7.01972,-25.00771 z"
   id="path7" /><path
   style="display:none;fill:#000000;stroke-width:0.64"
   d="m 344.84319,164.52442 22.37532,16.23308 c 0,0 17.98801,4.82605 -7.89717,-25.44645 C 333.43616,125.03856 259.29049,39.485861 259.29049,39.485861 c 0,0 -26.76264,-4.82605 -2.19366,22.375322 24.56898,27.201371 87.74636,102.663237 87.74636,102.663237 z"
   id="path8" /><path
   style="display:none;fill:#000000;stroke-width:0.64"
   d="M 25.885176,162.7695 102.66324,65.37104 c 0,0 21.49785,-54.402745 -17.549275,-4.826053 C 46.066838,110.12168 5.7035133,162.33076 5.7035133,162.33076 c 0,0 -8.7746359,8.33591 -3.5098544,15.35561 5.2647814,7.01972 14.9168811,3.07113 14.9168811,3.07113 z"
   id="path9" /><path
   style="display:none;fill:#000000;stroke-width:0.64"
   d="M 486.55356,163.64696 389.59383,39.924593 c 0,0 19.74293,-3.071122 24.56898,3.948586 4.82605,7.019709 96.08227,124.599821 96.08227,124.599821 0,0 5.26478,4.82606 -2.19367,11.84576 -7.45844,7.01972 -21.49785,-16.6718 -21.49785,-16.6718 z"
   id="path10" /><path
   style="display:none;fill:#000000;stroke-width:0.64"
   d="m 382.57412,56.157669 h 40.80206 l -9.6521,-13.600685 c 0,0 0.43873,-3.509854 -20.62039,-2.632391 -21.05913,0.877463 -282.54328,0 -282.54328,0 0,0 -13.600685,-1.754927 -13.600685,6.580977 0,8.335904 21.059125,9.213368 21.059125,9.213368 z"
   id="path11" /></g>
</svg>
